# xmcd
#
# Track frame offsets:
#	150
#	13405
#	25475
#	36367
#	49584
#	60465
#	72106
#	83018
#	96521
#	109530
#	121104
#	134129
#	146426
#	157972
#	168024
#	176620
#	188181
#	201126
#	211187
#	222991
#	233053
#	245874
#	255555
#	268484
#	280700
#	293671
#	307336
#	320629
#	332811
#	344308
#
# Disc length: 4738 seconds
# Revision: 0
# Processed by: cddbd v1.5.2PL0 Copyright (c) Steve Scherf et al.
# Submitted via: dBpowerAMP V12.0
#
DISCID=cc12801e
DTITLE=Various Artist - For This I Thank You: Motown R& B, Popcorn and Rock 'n' Roll Disc 2
DYEAR=1900
DGENRE=
TTITLE0=Contours, The - Do You Love Me
TTITLE1=Barrett Strong - Money (That's What I Want)
TTITLE2=Jimmy Ruffin - Don't Feel Sorry for Me
TTITLE3=Mary Wells - Bye Bye Baby
TTITLE4=Gino Parks - Same Thing
TTITLE5=Supremes, The - Let Me Go the Right Way
TTITLE6=Eddie Holland - Jamie
TTITLE7=Miracles, The - Way Over There
TTITLE8=Singin' Sammy Ward - Someday Pretty Baby
TTITLE9=Marvin Gaye - Hitch Hike
TTITLE10=Marvelettes, The - Mix It Up
TTITLE11=Contours, The - The Stretch
TTITLE12=Little Stevie Wonder - I Call It Pretty Music But the Old People Call It the Blues (Part 1)
TTITLE13=Barrett Strong - Whirlwind
TTITLE14=Gino Parks - Don't Say Bye Bye
TTITLE15=Sammy Ward - What Makes You Love Him
TTITLE16=Henry Lumpkin - What Is a Man (Without a Woman)
TTITLE17=Herman Griffin - True Love (That's Love)
TTITLE18=Mabel John - Looking for a Man
TTITLE19=Eugene Remus - Hold Me Tight
TTITLE20=Herman Griffin - Uptight
TTITLE21=Charters, The - Trouble Lover
TTITLE22=Singin' Sammy Ward - Big Joe Moe
TTITLE23=Contours, The - Come on and Be Mine
TTITLE24=Supremes, The - Who's Lovin' You
TTITLE25=Miracles, The - You've Really Got a Hold on Me
TTITLE26=Barrett Strong - I'm Gonna Cry (If You Quit Me)
TTITLE27=Mary Wells - Please Forgive Me
TTITLE28=Eugene Remus - Gotta Have Your Lovin'
TTITLE29=Swinging Tigers, The - Snake Walk (Part 1)
EXTD=
EXTT0=
EXTT1=
EXTT2=
EXTT3=
EXTT4=
EXTT5=
EXTT6=
EXTT7=
EXTT8=
EXTT9=
EXTT10=
EXTT11=
EXTT12=
EXTT13=
EXTT14=
EXTT15=
EXTT16=
EXTT17=
EXTT18=
EXTT19=
EXTT20=
EXTT21=
EXTT22=
EXTT23=
EXTT24=
EXTT25=
EXTT26=
EXTT27=
EXTT28=
EXTT29=
PLAYORDER=
